# xmcd
#
# Track frame offsets:
#	150
#	29617
#	51615
#	73937
#	93607
#	112548
#	134155
#	151307
#	176437
#	193339
#	213071
#	236170
#	258113
#	279489
#
# Disc length: 4018 seconds
#
# Revision: 1
# Processed by: cddbd v1.5.2PL0 Copyright (c) Steve Scherf et al.
# Submitted via: EasyCDDAExtractor 16.0.9.1
#
DISCID=d20fb00e
DTITLE=Various Artist - Noi Buon Hoa Phuong [TNCD383]
DYEAR=2006
DGENRE=Country
TTITLE0=Huong Lan, Nhu Quynh, Hoang Oanh - LK Noi buon hoa phuong, Luu but nga
TTITLE0=y xanh
TTITLE1=Quang Le, Ha Phuong - Huong toc ma non
TTITLE2=Minh Tuyet - Thuong ca mua ha
TTITLE3=Duong Trieu Vu - Mua hoa anh dao
TTITLE4=Huong Thuy - Thi tran mu suong
TTITLE5=Nhu Quynh - Yeu tieng hat ngay xua
TTITLE6=Huong Lan - Hoai co
TTITLE7=Manh Quynh, Manh Dinh - Muoi nam tai ngo
TTITLE8=Son Ca, Thai Chau - Bai ngoi ca que huong
TTITLE9=Ngoc Ha - Non nuoc huu tinh
TTITLE10=Manh Quynh, Ha Vy - Nhat ky doi toi
TTITLE11=Phuong Diem Hanh - Ha buon
TTITLE12=Tam Doan, Huong Thuy - Hanh trinh tren dat phu sa
TTITLE13=Phuong Diem Hanh - Huong tinh cu
EXTD=
EXTT0=
EXTT1=
EXTT2=
EXTT3=
EXTT4=
EXTT5=
EXTT6=
EXTT7=
EXTT8=
EXTT9=
EXTT10=
EXTT11=
EXTT12=
EXTT13=
PLAYORDER=
